<svg width="400" height="225" xmlns="http://www.w3.org/2000/svg">
  <!-- Background -->
  <rect width="400" height="225" fill="#E0D6CA"/>
  
  <!-- Circle Border -->
  <circle cx="200" cy="112.5" r="90" fill="none" stroke="#b08d57" stroke-width="3"/>
  
  <!-- BeaCukai Reporting Icon -->
  <g transform="translate(200, 112.5) scale(0.9)">
    <!-- Document/Report Base -->
    <rect x="-45" y="-50" width="90" height="100" rx="4" fill="#b08d57"/>
    <rect x="-40" y="-45" width="80" height="90" rx="2" fill="#f5ede6"/>
    
    <!-- Chart/Graph on Document -->
    <!-- Bar Chart -->
    <rect x="-30" y="10" width="12" height="25" fill="#b08d57"/>
    <rect x="-12" y="-5" width="12" height="40" fill="#b08d57"/>
    <rect x="6" y="5" width="12" height="30" fill="#b08d57"/>
    <rect x="24" y="-10" width="12" height="45" fill="#b08d57"/>
    
    <!-- Chart Title Line -->
    <line x1="-30" y1="-35" x2="10" y2="-35" stroke="#b08d57" stroke-width="2"/>
    
    <!-- Data Lines -->
    <line x1="-30" y1="-25" x2="30" y2="-25" stroke="#b08d57" stroke-width="1.5"/>
    <line x1="-30" y1="-18" x2="25" y2="-18" stroke="#b08d57" stroke-width="1.5"/>
    
    <!-- Search/Analytics Icon -->
    <g transform="translate(40, -40)">
      <circle cx="0" cy="0" r="10" stroke="#b08d57" stroke-width="2" fill="none"/>
      <line x1="7" y1="7" x2="15" y2="15" stroke="#b08d57" stroke-width="2"/>
    </g>
    
    <!-- Customs/Globe Icon (left) -->
    <g transform="translate(-55, -30)">
      <circle cx="0" cy="0" r="12" stroke="#b08d57" stroke-width="2" fill="none"/>
      <ellipse cx="0" cy="0" rx="5" ry="12" stroke="#b08d57" stroke-width="1.5" fill="none"/>
      <line x1="-12" y1="0" x2="12" y2="0" stroke="#b08d57" stroke-width="1.5"/>
    </g>
    
    <!-- Data Transfer Arrow -->
    <g transform="translate(0, -65)">
      <line x1="-20" y1="0" x2="20" y2="0" stroke="#b08d57" stroke-width="2.5"/>
      <polygon points="20,0 15,-4 15,4" fill="#b08d57"/>
      <polygon points="-20,0 -15,-4 -15,4" fill="#b08d57"/>
    </g>
  </g>
</svg>
